<svg width="305" height="231" viewBox="0 0 305 231" fill="none" xmlns="http://www.w3.org/2000/svg">
<g clip-path="url(#clip0_8459_445)">
<mask id="mask0_8459_445" style="mask-type:luminance" maskUnits="userSpaceOnUse" x="0" y="0" width="305" height="231">
<path d="M304.234 0H0V231H304.234V0Z" fill="white"/>
</mask>
<g mask="url(#mask0_8459_445)">
<path d="M153.074 0H17.3561C12.7546 0.00518131 8.34297 1.83544 5.08919 5.08923C1.83541 8.34301 0.00516984 12.7546 0 17.3561V176.717C0.0051708 181.319 1.83542 185.73 5.0892 188.984C8.34298 192.238 12.7546 194.068 17.3561 194.073H153.074C157.675 194.068 162.087 192.238 165.341 188.984C168.595 185.73 170.425 181.319 170.43 176.717V17.3561C170.425 12.7546 168.595 8.34301 165.341 5.08923C162.087 1.83544 157.675 0.00518131 153.074 0Z" fill="#CCCCCC"/>
<path d="M153.074 4.99646H17.3562C14.0794 5.00013 10.9378 6.30349 8.62072 8.62058C6.30362 10.9377 5.00026 14.0793 4.99658 17.3561V176.717C5.00026 179.994 6.30362 183.135 8.62072 185.453C10.9378 187.77 14.0794 189.073 17.3562 189.077H153.074C156.351 189.073 159.492 187.77 161.809 185.453C164.127 183.135 165.43 179.994 165.434 176.717V17.3561C165.43 14.0793 164.127 10.9377 161.809 8.62063C159.492 6.30354 156.351 5.00017 153.074 4.99646Z" fill="white"/>
<path d="M132.648 51.3343H64.0167C63.2502 51.3343 62.515 51.0298 61.973 50.4878C61.431 49.9458 61.1265 49.2106 61.1265 48.4441C61.1265 47.6775 61.431 46.9424 61.973 46.4003C62.515 45.8583 63.2502 45.5538 64.0167 45.5538H132.648C133.028 45.5538 133.404 45.6286 133.754 45.7738C134.105 45.9191 134.424 46.132 134.692 46.4003C134.96 46.6687 135.173 46.9874 135.319 47.338C135.464 47.6887 135.539 48.0645 135.539 48.4441C135.539 48.8236 135.464 49.1995 135.319 49.5501C135.173 49.9008 134.96 50.2194 134.692 50.4878C134.424 50.7562 134.105 50.9691 133.754 51.1143C133.404 51.2596 133.028 51.3343 132.648 51.3343Z" fill="#F2F2F2"/>
<path d="M144.571 61.089H64.0169C63.2509 61.0881 62.5166 60.7831 61.9753 60.2412C61.4339 59.6993 61.1299 58.9647 61.1299 58.1987C61.1299 57.4327 61.4339 56.6981 61.9753 56.1561C62.5166 55.6142 63.2509 55.3092 64.0169 55.3083H144.571C145.337 55.3092 146.071 55.6142 146.612 56.1561C147.154 56.6981 147.458 57.4327 147.458 58.1987C147.458 58.9647 147.154 59.6993 146.612 60.2412C146.071 60.7831 145.337 61.0881 144.571 61.089Z" fill="#F2F2F2"/>
<path d="M132.648 95.0495H64.0167C63.2502 95.0495 62.515 94.745 61.973 94.203C61.431 93.6609 61.1265 92.9258 61.1265 92.1593C61.1265 91.3927 61.431 90.6576 61.973 90.1155C62.515 89.5735 63.2502 89.269 64.0167 89.269H132.648C133.028 89.269 133.404 89.3438 133.754 89.489C134.105 89.6342 134.424 89.8471 134.692 90.1155C134.96 90.3839 135.173 90.7025 135.319 91.0532C135.464 91.4039 135.539 91.7797 135.539 92.1593C135.539 92.5388 135.464 92.9146 135.319 93.2653C135.173 93.616 134.96 93.9346 134.692 94.203C134.424 94.4714 134.105 94.6843 133.754 94.8295C133.404 94.9747 133.028 95.0495 132.648 95.0495Z" fill="#F2F2F2"/>
<path d="M144.571 104.804H64.0169C63.2509 104.803 62.5166 104.498 61.9753 103.956C61.4339 103.415 61.1299 102.68 61.1299 101.914C61.1299 101.148 61.4339 100.413 61.9753 99.8713C62.5166 99.3294 63.2509 99.0245 64.0169 99.0236H144.571C145.337 99.0245 146.071 99.3294 146.612 99.8713C147.154 100.413 147.458 101.148 147.458 101.914C147.458 102.68 147.154 103.415 146.612 103.956C146.071 104.498 145.337 104.803 144.571 104.804Z" fill="#F2F2F2"/>
<path d="M132.648 138.765H64.0167C63.2502 138.765 62.515 138.46 61.973 137.918C61.431 137.376 61.1265 136.641 61.1265 135.874C61.1265 135.108 61.431 134.373 61.973 133.831C62.515 133.289 63.2502 132.984 64.0167 132.984H132.648C133.028 132.984 133.404 133.058 133.755 133.203C134.106 133.348 134.425 133.561 134.694 133.83C134.963 134.098 135.176 134.417 135.321 134.768C135.467 135.119 135.542 135.495 135.542 135.874C135.542 136.254 135.467 136.63 135.321 136.981C135.176 137.332 134.963 137.651 134.694 137.919C134.425 138.188 134.106 138.401 133.755 138.546C133.404 138.691 133.028 138.765 132.648 138.765Z" fill="#F2F2F2"/>
<path d="M144.571 148.519H64.0169C63.2509 148.518 62.5166 148.214 61.9753 147.672C61.4339 147.13 61.1299 146.395 61.1299 145.629C61.1299 144.863 61.4339 144.128 61.9753 143.586C62.5166 143.045 63.2509 142.74 64.0169 142.739H144.571C145.337 142.74 146.071 143.045 146.612 143.586C147.154 144.128 147.458 144.863 147.458 145.629C147.458 146.395 147.154 147.13 146.612 147.672C146.071 148.214 145.337 148.518 144.571 148.519Z" fill="#F2F2F2"/>
<path d="M48.6431 65.5171H24.3551C23.9876 65.5167 23.6354 65.3706 23.3756 65.1108C23.1157 64.851 22.9696 64.4987 22.9692 64.1313V42.5115C22.9696 42.1441 23.1157 41.7918 23.3756 41.532C23.6354 41.2722 23.9876 41.126 24.3551 41.1256H48.6431C49.0106 41.126 49.3628 41.2722 49.6227 41.532C49.8825 41.7918 50.0286 42.1441 50.029 42.5115V64.1313C50.0286 64.4987 49.8825 64.851 49.6227 65.1108C49.3628 65.3706 49.0106 65.5167 48.6431 65.5171Z" fill="#555555"/>
<path d="M48.6431 109.232H24.3551C23.9876 109.232 23.6354 109.086 23.3756 108.826C23.1157 108.566 22.9696 108.214 22.9692 107.846V86.2267C22.9696 85.8593 23.1157 85.507 23.3756 85.2472C23.6354 84.9874 23.9876 84.8412 24.3551 84.8408H48.6431C49.0106 84.8412 49.3628 84.9874 49.6227 85.2472C49.8825 85.507 50.0286 85.8593 50.029 86.2267V107.846C50.0286 108.214 49.8825 108.566 49.6227 108.826C49.3628 109.086 49.0106 109.232 48.6431 109.232Z" fill="#555555"/>
<path d="M48.6431 152.948H24.3551C23.9876 152.947 23.6354 152.801 23.3756 152.541C23.1157 152.281 22.9696 151.929 22.9692 151.562V129.942C22.9696 129.574 23.1157 129.222 23.3756 128.962C23.6354 128.703 23.9876 128.556 24.3551 128.556H48.6431C49.0106 128.556 49.3628 128.703 49.6227 128.962C49.8825 129.222 50.0286 129.574 50.029 129.942V151.562C50.0286 151.929 49.8825 152.281 49.6227 152.541C49.3628 152.801 49.0106 152.947 48.6431 152.948Z" fill="#555555"/>
<path d="M272.632 150.718L273.709 141.302L279.107 94.0905L280.184 84.6745C280.702 80.1021 279.385 75.5112 276.521 71.9088C273.658 68.3064 269.483 65.9868 264.912 65.4589L142.414 51.4515C137.842 50.9339 133.251 52.2511 129.649 55.1142C126.046 57.9772 123.727 62.1523 123.199 66.7235L123.196 66.7478L115.649 132.743L115.647 132.767C115.129 137.339 116.446 141.93 119.309 145.532C122.172 149.135 126.348 151.454 130.919 151.982L253.417 165.99C257.989 166.507 262.58 165.19 266.182 162.327C269.785 159.464 272.104 155.289 272.632 150.718Z" fill="#CCCCCC"/>
<path d="M267.668 150.15L268.943 138.998L273.945 95.2593L275.22 84.1069C275.589 80.8508 274.651 77.5814 272.612 75.0161C270.573 72.4508 267.6 70.7989 264.345 70.423L141.847 56.4156C138.59 56.047 135.321 56.985 132.756 59.0238C130.19 61.0627 128.539 64.0359 128.163 67.2911L128.16 67.3154L120.614 133.31L120.611 133.335C120.242 136.591 121.18 139.86 123.219 142.425C125.258 144.991 128.231 146.642 131.486 147.018L253.984 161.026C257.24 161.394 260.51 160.456 263.075 158.418C265.64 156.379 267.292 153.406 267.668 150.15Z" fill="white"/>
<path d="M247.617 90.3117L179.43 82.5146C179.053 82.4719 178.687 82.3551 178.355 82.1711C178.023 81.9871 177.73 81.7394 177.494 81.4422C177.257 81.145 177.082 80.8041 176.977 80.439C176.872 80.0739 176.841 79.6917 176.884 79.3144C176.927 78.937 177.044 78.5719 177.229 78.2398C177.413 77.9078 177.661 77.6153 177.958 77.3792C178.256 77.143 178.597 76.9678 178.962 76.8635C179.327 76.7592 179.709 76.728 180.087 76.7715L248.274 84.5686C249.035 84.6564 249.73 85.0427 250.206 85.6427C250.683 86.2426 250.901 87.0071 250.814 87.7682C250.727 88.5293 250.342 89.2247 249.742 89.7016C249.143 90.1785 248.378 90.398 247.617 90.3117Z" fill="#E6E6E6"/>
<path d="M258.354 101.358L178.322 92.2061C177.945 92.1633 177.579 92.0466 177.247 91.8626C176.915 91.6785 176.622 91.4308 176.386 91.1336C176.149 90.8364 175.974 90.4955 175.869 90.1304C175.765 89.7654 175.733 89.3832 175.776 89.0059C175.819 88.6286 175.936 88.2634 176.121 87.9314C176.305 87.5994 176.553 87.3069 176.85 87.0707C177.148 86.8346 177.489 86.6593 177.854 86.5551C178.219 86.4508 178.601 86.4195 178.979 86.463L259.011 95.6146C259.388 95.6577 259.753 95.7747 260.085 95.9588C260.417 96.143 260.709 96.3907 260.945 96.6878C261.182 96.985 261.357 97.3257 261.461 97.6906C261.566 98.0555 261.597 98.4374 261.554 98.8145C261.511 99.1916 261.394 99.5565 261.21 99.8884C261.026 100.22 260.778 100.513 260.481 100.749C260.184 100.985 259.843 101.16 259.478 101.265C259.113 101.369 258.731 101.401 258.354 101.358Z" fill="#E6E6E6"/>
<path d="M256.123 120.687L138.13 107.195C137.369 107.107 136.674 106.721 136.198 106.121C135.722 105.521 135.503 104.756 135.59 103.995C135.677 103.234 136.063 102.539 136.662 102.062C137.262 101.585 138.026 101.365 138.787 101.452L256.78 114.944C257.157 114.987 257.522 115.103 257.854 115.287C258.187 115.472 258.479 115.719 258.716 116.016C258.952 116.314 259.128 116.654 259.232 117.02C259.337 117.385 259.369 117.767 259.325 118.144C259.282 118.521 259.165 118.887 258.981 119.219C258.797 119.551 258.549 119.843 258.251 120.079C257.954 120.315 257.613 120.491 257.247 120.595C256.882 120.699 256.5 120.731 256.123 120.687Z" fill="#E6E6E6"/>
<path d="M255.394 130.422L137.022 116.886C136.261 116.798 135.566 116.412 135.09 115.812C134.614 115.212 134.395 114.448 134.482 113.687C134.569 112.926 134.954 112.23 135.554 111.753C136.153 111.276 136.918 111.057 137.679 111.143L256.051 124.679C256.812 124.767 257.507 125.153 257.983 125.753C258.459 126.353 258.678 127.117 258.591 127.878C258.504 128.639 258.118 129.335 257.519 129.812C256.919 130.289 256.155 130.508 255.394 130.422Z" fill="#E6E6E6"/>
<path d="M253.951 139.678L135.959 126.185C135.581 126.143 135.216 126.026 134.884 125.842C134.552 125.658 134.259 125.41 134.023 125.113C133.786 124.816 133.611 124.475 133.506 124.11C133.401 123.745 133.37 123.362 133.413 122.985C133.456 122.608 133.573 122.243 133.757 121.911C133.942 121.578 134.19 121.286 134.487 121.05C134.785 120.814 135.126 120.638 135.491 120.534C135.856 120.43 136.238 120.399 136.616 120.442L254.608 133.934C255.369 134.022 256.064 134.409 256.54 135.008C257.017 135.608 257.235 136.373 257.148 137.134C257.061 137.895 256.676 138.59 256.076 139.067C255.477 139.544 254.713 139.764 253.951 139.678Z" fill="#E6E6E6"/>
<path d="M253.222 149.412L134.851 135.877C134.09 135.789 133.394 135.403 132.918 134.803C132.442 134.203 132.223 133.438 132.31 132.677C132.397 131.916 132.783 131.221 133.382 130.744C133.982 130.267 134.746 130.047 135.507 130.134L253.879 143.669C254.256 143.712 254.622 143.829 254.954 144.013C255.286 144.197 255.579 144.444 255.815 144.742C256.052 145.039 256.227 145.38 256.332 145.745C256.436 146.11 256.468 146.492 256.425 146.869C256.382 147.247 256.265 147.612 256.08 147.944C255.896 148.276 255.648 148.569 255.351 148.805C255.053 149.041 254.712 149.216 254.347 149.32C253.982 149.425 253.599 149.456 253.222 149.412Z" fill="#E6E6E6"/>
<path d="M162.544 94.859L138.414 92.0997C138.049 92.0576 137.715 91.8724 137.487 91.5847C137.258 91.2971 137.153 90.9305 137.194 90.5654L139.65 69.0856C139.692 68.7206 139.878 68.3872 140.165 68.1586C140.453 67.93 140.82 67.8248 141.185 67.8661L165.315 70.6254C165.68 70.6676 166.014 70.8528 166.242 71.1404C166.471 71.4281 166.576 71.7947 166.535 72.1598L164.079 93.6396C164.037 94.0046 163.851 94.338 163.564 94.5666C163.276 94.7952 162.91 94.9004 162.544 94.859Z" fill="#FF6884"/>
<path d="M303.873 230.943H224.892C224.796 230.943 224.704 230.905 224.637 230.837C224.569 230.77 224.531 230.678 224.531 230.582C224.531 230.487 224.569 230.395 224.637 230.327C224.704 230.26 224.796 230.222 224.892 230.222H303.873C303.969 230.222 304.061 230.26 304.128 230.327C304.196 230.395 304.234 230.487 304.234 230.582C304.234 230.678 304.196 230.77 304.128 230.837C304.061 230.905 303.969 230.943 303.873 230.943Z" fill="#3F3D56"/>
<path d="M274.216 93.1623C274.094 93.6416 274.08 94.1416 274.172 94.6272C274.265 95.1128 274.463 95.5722 274.753 95.973C275.042 96.3737 275.416 96.7062 275.848 96.9468C276.28 97.1875 276.759 97.3305 277.252 97.3659L279.696 104.697L284.513 104.299L280.917 93.9942C280.922 93.1618 280.621 92.3567 280.071 91.7315C279.522 91.1062 278.762 90.7042 277.936 90.6017C277.11 90.4992 276.275 90.7032 275.589 91.1751C274.904 91.6471 274.415 92.3541 274.216 93.1623Z" fill="#FFB8B8"/>
<path d="M277.905 141.173C278.47 141.692 279.161 142.052 279.91 142.218C280.658 142.384 281.437 142.35 282.168 142.118C282.899 141.887 283.556 141.467 284.072 140.901C284.589 140.334 284.947 139.642 285.111 138.893L288.926 121.411C289.579 118.422 289.425 115.313 288.481 112.402L284.016 98.6345C283.951 98.4369 283.845 98.2555 283.705 98.1026C283.564 97.9498 283.392 97.8291 283.2 97.7489C283.009 97.6687 282.802 97.6308 282.595 97.6378C282.387 97.6449 282.183 97.6966 281.998 97.7896L279.083 99.2487C278.781 99.3998 278.542 99.652 278.407 99.9612C278.272 100.271 278.249 100.617 278.344 100.941L278.638 101.952C281.081 110.355 281.209 119.263 279.009 127.733L276.635 136.868C276.436 137.633 276.449 138.438 276.673 139.197C276.897 139.955 277.323 140.638 277.905 141.173Z" fill="#5A8FEC"/>
<path d="M262.638 227.171H258.515L256.554 211.268H262.64L262.638 227.171Z" fill="#FFB8B8"/>
<path d="M255.57 225.993H263.521V230.999H250.563C250.563 230.342 250.693 229.691 250.945 229.084C251.196 228.476 251.565 227.924 252.03 227.459C252.495 226.994 253.047 226.626 253.654 226.374C254.261 226.122 254.912 225.993 255.57 225.993Z" fill="#2F2E41"/>
<path d="M284.862 227.171H280.739L278.778 211.268H284.863L284.862 227.171Z" fill="#FFB8B8"/>
<path d="M277.794 225.993H285.745V230.999H272.787C272.787 230.342 272.917 229.691 273.168 229.084C273.42 228.476 273.789 227.924 274.253 227.459C274.718 226.994 275.27 226.626 275.878 226.374C276.485 226.122 277.136 225.993 277.794 225.993Z" fill="#2F2E41"/>
<path d="M272.787 114.118C277.679 114.118 281.645 110.152 281.645 105.26C281.645 100.368 277.679 96.4021 272.787 96.4021C267.895 96.4021 263.929 100.368 263.929 105.26C263.929 110.152 267.895 114.118 272.787 114.118Z" fill="#FFB8B8"/>
<path d="M242.499 163.028C242.561 162.537 242.729 162.066 242.993 161.648C243.256 161.23 243.609 160.874 244.024 160.607C244.44 160.339 244.909 160.166 245.399 160.1C245.889 160.033 246.388 160.075 246.86 160.222L251.81 154.288L256.15 156.416L249.042 164.699C248.742 165.475 248.168 166.115 247.428 166.497C246.688 166.878 245.834 166.975 245.028 166.769C244.221 166.563 243.519 166.069 243.052 165.379C242.586 164.689 242.389 163.853 242.499 163.028Z" fill="#FFB8B8"/>
<path d="M274.943 114.117C276.277 114.146 277.601 113.893 278.829 113.373C280.057 112.854 281.161 112.08 282.069 111.104C282.977 110.127 283.668 108.969 284.097 107.707C284.525 106.444 284.682 105.105 284.556 103.777C284.43 102.45 284.025 101.164 283.367 100.004C282.709 98.8447 281.813 97.8373 280.737 97.0486C279.662 96.2599 278.432 95.7076 277.129 95.4281C275.825 95.1486 274.477 95.1481 273.173 95.4268C271.225 94.2441 268.96 93.4482 266.69 93.6506C264.42 93.853 262.175 95.2006 261.326 97.3155C260.478 99.4304 261.39 102.218 263.5 103.078C264.853 103.629 266.381 103.361 267.825 103.139C269.269 102.917 270.844 102.772 272.101 103.517C273.358 104.262 273.923 106.26 272.797 107.192C272.201 107.705 271.775 108.388 271.576 109.149C271.377 109.911 271.415 110.715 271.685 111.454C272.251 112.917 273.795 114.093 274.943 114.117Z" fill="#2F2E41"/>
<path d="M285.933 162.677L287.505 222.306C287.51 222.505 287.474 222.703 287.399 222.887C287.324 223.071 287.212 223.238 287.07 223.377C286.928 223.516 286.758 223.624 286.572 223.694C286.386 223.764 286.188 223.795 285.989 223.785L280.813 223.521C280.483 223.504 280.168 223.374 279.922 223.153C279.676 222.932 279.514 222.633 279.462 222.307L273.305 183.577C273.279 183.412 273.196 183.26 273.07 183.149C272.944 183.038 272.783 182.975 272.615 182.97C272.448 182.964 272.283 183.018 272.151 183.121C272.018 183.224 271.926 183.37 271.889 183.533L263.555 220.823C263.511 221.022 263.424 221.21 263.302 221.373C263.179 221.537 263.024 221.672 262.845 221.771C262.666 221.87 262.468 221.929 262.265 221.946C262.061 221.963 261.857 221.936 261.664 221.867L256.527 221.554C256.23 221.448 255.976 221.248 255.803 220.984C255.63 220.72 255.549 220.407 255.572 220.092L260.056 162.113L285.933 162.677Z" fill="#2F2E41"/>
<path d="M288.455 134.356C289.321 125.319 282.677 117.146 273.623 116.503C269.721 116.226 263.664 116.127 261.668 121.241C255.653 136.645 266.182 136.271 262.555 149.618C258.927 162.964 255.723 163.729 260.7 164.693C265.678 165.656 288.062 171.346 287.142 161.952C286.577 156.178 287.59 143.369 288.455 134.356Z" fill="#5A8FEC"/>
<path d="M263.454 119.674C264.169 119.397 264.945 119.314 265.702 119.433C266.459 119.551 267.172 119.868 267.768 120.35C268.364 120.832 268.822 121.463 269.097 122.178C269.371 122.894 269.452 123.67 269.331 124.427L266.504 142.095C266.02 145.116 264.742 147.955 262.801 150.32L253.62 161.509C253.488 161.67 253.323 161.8 253.136 161.891C252.949 161.982 252.745 162.031 252.538 162.036C252.33 162.041 252.124 162.001 251.933 161.918C251.742 161.836 251.571 161.714 251.432 161.559L249.251 159.137C249.026 158.886 248.895 158.564 248.882 158.227C248.869 157.89 248.975 157.559 249.181 157.291L249.823 156.458C255.165 149.526 258.535 141.279 259.577 132.59L260.701 123.219C260.795 122.434 261.101 121.689 261.586 121.065C262.071 120.44 262.717 119.959 263.454 119.674Z" fill="#5A8FEC"/>
</g>
</g>
<defs>
<clipPath id="clip0_8459_445">
<rect width="305" height="231" fill="white"/>
</clipPath>
</defs>
</svg>
