<svg width="216" height="235" viewBox="0 0 216 235" fill="none" xmlns="http://www.w3.org/2000/svg">
<g clip-path="url(#clip0_8459_307)">
<path d="M55.8272 101.245C80.5983 101.245 100.679 81.2293 100.679 56.5382C100.679 31.8471 80.5983 11.831 55.8272 11.831C31.0561 11.831 10.9751 31.8471 10.9751 56.5382C10.9751 81.2293 31.0561 101.245 55.8272 101.245Z" fill="#FF6884"/>
<path d="M122.835 17.2754L36.4462 64.7077C26.4667 77.4613 216.09 78.2497 214.525 64.7546L130.753 17.3223C128.369 15.9723 125.243 15.9537 122.835 17.2754Z" fill="#5A8FEC"/>
<path opacity="0.2" d="M122.835 17.2754L36.4462 64.7077C26.4667 77.4613 216.09 78.2497 214.525 64.7546L130.753 17.3223C128.369 15.9723 125.243 15.9537 122.835 17.2754Z" fill="black"/>
<path opacity="0.8" d="M214.166 235L192.192 234.533H41.5065L-0.00170898 233.599C137.61 201.182 95.2985 203.973 214.166 235Z" fill="#F2F2F2"/>
<path d="M193.936 233.599L192.191 234.533H41.5063C144.511 213.339 82.7563 215.205 193.936 233.599Z" fill="#CDCDCD"/>
<path d="M121.126 13.3158H127.612L125.425 1.02828C125.29 0.269131 124.772 0 124.369 0C123.967 0 123.449 0.269131 123.314 1.02828L121.126 13.3158Z" fill="#3F3D56"/>
<path d="M127.663 53.8579H120.511V227.699H127.663V53.8579Z" fill="#3F3D56"/>
<path d="M124.107 80.9956C121.057 80.9956 118.189 79.8181 116.021 77.6726L97.9739 59.8132L99.4481 58.3328L117.495 76.1922C119.289 77.968 121.658 78.9373 124.199 78.9092C126.727 78.8854 129.089 77.876 130.85 76.0669L148.095 58.3467L149.597 59.7992L132.352 77.5195C130.199 79.7319 127.311 80.9661 124.219 80.9953C124.181 80.9956 124.144 80.9956 124.107 80.9956Z" fill="#3F3D56"/>
<path d="M126.607 67.3611C117.728 67.3611 108.778 67.3308 100.091 67.2695C81.6855 67.139 65.9718 66.8814 54.6484 66.524C35.3478 65.915 35.1424 65.2229 35.0544 64.9277C35.0343 64.8594 35.0273 64.7268 35.209 64.6076L121.361 8.13521C123.433 6.77377 126.099 6.79228 128.152 8.18375L215.252 64.654C215.434 64.7769 215.425 64.9098 215.404 64.9781C215.295 65.3252 214.965 66.3814 176.722 67.0019C162.171 67.2379 144.536 67.3611 126.607 67.3611Z" fill="#5A8FEC"/>
<path d="M143.194 151.154L132.275 151.165C131.053 153.874 132.723 157.042 134.86 159.112C136.996 161.182 139.674 162.771 141.251 165.29C144.751 170.881 141.453 178.234 142.609 184.722C144.166 193.46 153.356 198.959 156.154 207.383C157.737 212.148 157.018 217.618 154.255 221.816C153.745 222.591 153.157 223.356 152.978 224.265C152.736 225.502 153.389 226.86 154.508 227.447C155.627 228.033 157.12 227.799 158.004 226.899C157.14 227.877 157.424 229.529 158.393 230.403C159.363 231.278 160.807 231.464 162.087 231.195C166.233 230.322 168.32 225.548 168.487 221.328C168.655 217.108 167.593 212.831 168.422 208.689C168.95 214.634 175.698 218.409 176.227 224.353C176.325 225.455 170.217 228.768 170.786 229.718C172.222 232.119 175.647 232.128 178.437 231.84C183.24 231.345 188.574 230.573 191.587 226.812C193.616 224.278 194.142 220.867 194.209 217.625C194.383 209.161 191.854 200.662 187.077 193.662C180.719 184.345 170.612 177.743 165.621 167.633C163.925 164.197 162.887 160.471 161.237 157.013C159.586 153.555 157.158 150.246 153.646 148.694C150.134 147.143 145.405 147.908 143.379 151.161" fill="#3F3D56"/>
<path d="M177.051 225.53C176.834 225.53 176.621 225.484 176.42 225.39C176.264 225.318 176.197 225.133 176.27 224.978C176.342 224.822 176.527 224.754 176.684 224.827C177.028 224.987 177.359 224.882 177.576 224.766C178.022 224.528 178.371 224.04 178.445 223.552C178.588 222.608 178.114 221.645 177.696 220.794C176.476 218.315 175.269 215.66 175.088 212.854C174.884 209.691 176.194 206.744 178.426 205.347C180.085 204.309 182.278 204.037 184.602 204.581C186.592 205.048 188.427 206.027 190.286 207.074C190.436 207.158 190.489 207.348 190.404 207.497C190.32 207.647 190.13 207.7 189.98 207.615C188.091 206.552 186.372 205.635 184.459 205.186C182.299 204.68 180.274 204.924 178.757 205.873C176.717 207.15 175.52 209.875 175.71 212.814C175.884 215.506 177.063 218.097 178.255 220.521C178.691 221.407 179.234 222.509 179.061 223.645C178.958 224.327 178.49 224.982 177.871 225.314C177.601 225.457 177.323 225.53 177.051 225.53Z" fill="#2F2E41"/>
<path d="M158.886 156.561C160.488 159.73 159.643 163.94 156.939 166.249C156.359 166.746 155.705 167.161 155.186 167.72C154.667 168.28 154.286 169.038 154.417 169.789C152.646 168.038 150.841 166.239 149.769 163.993C148.698 161.748 148.489 158.929 149.883 156.867C150.548 155.883 151.518 155.145 152.272 154.228C153.027 153.311 153.572 152.062 153.163 150.948" fill="#2F2E41"/>
<path d="M190.733 217.431C189.886 220.012 191.28 222.982 193.568 224.457C195.856 225.932 198.812 226.085 201.453 225.418C206.56 224.127 210.755 219.769 211.836 214.629C212.285 212.491 212.254 210.2 213.271 208.266C213.911 207.05 214.967 205.952 214.997 204.58C215.022 203.464 214.296 202.405 213.305 201.887C212.314 201.368 211.107 201.35 210.041 201.688C207.498 202.493 205.938 205.059 205.129 207.593C204.32 210.127 204.018 212.836 202.843 215.223C201.667 217.61 199.237 219.694 196.594 219.33C194.309 219.015 192.375 216.961 190.085 217.241" fill="#3F3D56"/>
<path d="M63.0352 185.221C59.9441 185.694 57.6829 187.666 57.9848 189.627C58.2866 191.588 61.0369 192.794 64.129 192.321C65.3668 192.149 66.5453 191.684 67.5658 190.965L89.9269 187.607L90.7696 179.907L66.7229 185.489C65.5327 185.107 64.2682 185.016 63.0352 185.221Z" fill="#FFB6B6"/>
<path d="M119.365 169.167L114.296 179.888L88.8152 188.438L90.0568 179.725L113.571 168.649L119.365 169.167Z" fill="#E6E6E6"/>
<path d="M72.3686 209.874L67.818 221.348L61.929 217.345L65.4088 205.339L72.3686 209.874Z" fill="#FFB6B6"/>
<path d="M53.3631 205.605L41.3174 217.078L46.1357 222.148L58.449 212.543L53.3631 205.605Z" fill="#FFB6B6"/>
<path d="M121.622 168.251L121.488 167.317L118.41 161.314L108.238 163.982L110.112 172.253L121.622 168.251Z" fill="#FFB6B6"/>
<path d="M117.339 208.274L117.652 212.281C117.652 212.281 118.945 229.085 108.506 230.419C98.066 231.754 93.5154 233.088 87.3587 222.682L77.7221 205.605L72.0934 212.281L64.6057 206.406C64.6057 206.406 69.9594 185.594 74.2423 184.794C74.7776 184.694 75.313 184.644 75.84 184.633C79.3857 184.559 82.7281 186.288 84.8495 189.121L96.9953 205.339L101.412 203.337L117.339 208.274Z" fill="#2F2E41"/>
<path d="M59.5198 220.814L62.2246 216.836L68.4323 219.773C68.4323 219.773 70.4948 226.951 68.0856 227.751C65.6765 228.552 58.9844 227.484 58.9844 227.484C58.9844 227.484 46.6711 230.153 46.4034 227.751C46.1357 225.35 52.0247 224.816 52.0247 224.816L59.5198 220.814Z" fill="#FFB6B6"/>
<path d="M85.7527 217.612L67.1488 205.928L57.646 214.41L51.2217 206.939C51.2217 206.939 62.9997 189.596 66.4796 188.796C69.9594 187.995 75.5807 187.462 75.5807 187.462L92.7124 203.204L85.7527 217.612Z" fill="#2F2E41"/>
<path d="M42.6141 216.054L46.5482 221.648L46.3942 223.374C46.3942 223.374 44.7969 230.308 41.0494 227.962C37.3018 225.617 37.0342 225.083 37.0342 225.083C37.0342 225.083 26.3269 227.484 25.2561 223.215C24.1854 218.946 27.1299 219.747 27.1299 219.747L29.8036 221.348L40.2255 217.875L42.6141 216.054Z" fill="#FFB6B6"/>
<path d="M111.45 166.917C116.181 166.917 120.016 163.094 120.016 158.379C120.016 153.663 116.181 149.841 111.45 149.841C106.719 149.841 102.884 153.663 102.884 158.379C102.884 163.094 106.719 166.917 111.45 166.917Z" fill="#FFB6B6"/>
<path d="M109.443 170.519L121.756 166.783C121.756 166.783 126.574 177.99 125.771 183.059C124.968 188.129 117.652 212.281 117.652 212.281L101.412 203.337C101.412 203.337 101.144 198.001 100.341 195.6C99.5383 193.198 96.9954 185.861 102.617 179.724C108.238 173.587 109.443 170.519 109.443 170.519Z" fill="#E6E6E6"/>
<path d="M82.3415 226.546C80.3375 228.939 79.9519 231.909 81.48 233.18C83.0081 234.451 85.8708 233.541 87.8751 231.147C88.6889 230.202 89.2638 229.076 89.5515 227.863L108.521 206.662L102.643 203.494L85.2836 224.313C84.1381 224.813 83.1293 225.578 82.3415 226.546Z" fill="#FFB6B6"/>
<path d="M118.887 175.902L121.797 187.393L107.553 210.121L108.838 209.829L101.053 204.128L102.963 202.603L114.08 179.167L118.887 175.902Z" fill="#E6E6E6"/>
<path d="M103.553 156.911C105.75 156.906 105.875 156.921 106.23 156.911C108.955 156.84 109.667 155.771 111.049 155.844C113.513 155.974 110.26 168.293 108.907 173.988C107.58 179.573 112.065 184.578 112.387 184.927C116.939 189.862 124.934 190.764 126.306 188.662C127.417 186.962 123.481 184.375 124.433 180.658C125.363 177.024 129.657 177.411 130.857 173.988C132.114 170.402 127.89 168.594 125.236 159.846C123.711 154.822 123.981 153.886 122.559 150.774C118.757 142.457 100.123 145.998 102.215 153.709C102.62 155.201 101.543 156.916 103.553 156.911Z" fill="#2F2E41"/>
</g>
<defs>
<clipPath id="clip0_8459_307">
<rect width="215.417" height="235" fill="white" transform="translate(-0.00170898)"/>
</clipPath>
</defs>
</svg>
