<svg width="342" height="205" viewBox="0 0 342 205" fill="none" xmlns="http://www.w3.org/2000/svg">
<g clip-path="url(#clip0_8459_353)">
<path d="M245.123 204.551H102.353V56.9512C102.353 25.5481 127.708 0 158.874 0H188.602C219.768 0 245.123 25.5481 245.123 56.9512V204.551Z" fill="#3F3D56"/>
<path d="M215.395 204.551H102.353V56.9511C102.322 44.9182 106.104 33.1894 113.147 23.4723C113.407 23.1158 113.666 22.7638 113.933 22.4156C117.34 17.9132 121.394 13.9479 125.962 10.6508C126.22 10.4616 126.48 10.2757 126.742 10.0898C130.565 7.42447 134.7 5.24564 139.053 3.60287C139.311 3.50414 139.574 3.40522 139.838 3.31035C143.775 1.89468 147.856 0.924948 152.006 0.419069C152.263 0.383657 152.527 0.355946 152.791 0.328236C156.835 -0.107459 160.914 -0.107459 164.958 0.328236C165.222 0.355946 165.486 0.383654 165.746 0.419448C169.895 0.92536 173.975 1.89497 177.911 3.31036C178.174 3.40524 178.437 3.50415 178.697 3.60307C182.996 5.22512 187.082 7.37144 190.864 9.99414C191.127 10.176 191.39 10.3619 191.649 10.5478C194.209 12.3895 196.614 14.4412 198.839 16.682C200.624 18.4794 202.287 20.3953 203.816 22.4168C204.083 22.7638 204.342 23.1158 204.601 23.4718C211.645 33.1889 215.427 44.9179 215.395 56.9511V204.551Z" fill="#CCCCCC"/>
<path d="M206.203 138.535C209.66 138.535 212.462 135.712 212.462 132.229C212.462 128.747 209.66 125.923 206.203 125.923C202.747 125.923 199.945 128.747 199.945 132.229C199.945 135.712 202.747 138.535 206.203 138.535Z" fill="#FF6884"/>
<path d="M233.427 200.13H228.632L226.35 181.493L233.428 181.493L233.427 200.13Z" fill="#FFB8B8"/>
<path d="M225.206 198.75H234.455V204.617H219.383C219.383 203.846 219.534 203.083 219.827 202.372C220.119 201.66 220.548 201.013 221.089 200.468C221.63 199.923 222.271 199.491 222.978 199.196C223.684 198.901 224.442 198.75 225.206 198.75Z" fill="#2F2E41"/>
<path d="M257.287 200.13H252.492L250.21 181.493L257.288 181.493L257.287 200.13Z" fill="#FFB8B8"/>
<path d="M249.066 198.75H258.315V204.617H243.243C243.243 203.846 243.394 203.083 243.687 202.372C243.979 201.66 244.408 201.013 244.949 200.468C245.49 199.923 246.132 199.491 246.838 199.196C247.545 198.901 248.302 198.75 249.066 198.75Z" fill="#2F2E41"/>
<path d="M209.371 133.478C209.026 132.966 208.796 132.384 208.699 131.773C208.601 131.162 208.638 130.537 208.806 129.941C208.974 129.346 209.27 128.795 209.672 128.327C210.075 127.86 210.574 127.487 211.135 127.234L227.436 81.9624L235.458 86.3732L216.845 129.637C217.203 130.614 217.193 131.69 216.816 132.661C216.44 133.632 215.723 134.429 214.801 134.903C213.88 135.376 212.818 135.493 211.817 135.23C210.817 134.968 209.946 134.345 209.371 133.478Z" fill="#FFB8B8"/>
<path d="M254.838 141.985C254.305 141.677 253.845 141.255 253.492 140.749C253.138 140.243 252.899 139.665 252.791 139.056C252.683 138.446 252.709 137.821 252.867 137.222C253.025 136.624 253.312 136.068 253.706 135.594L248.656 87.7039L257.785 88.1241L259.883 135.23C260.631 135.951 261.09 136.922 261.174 137.961C261.257 139 260.96 140.033 260.338 140.866C259.716 141.699 258.813 142.272 257.799 142.479C256.785 142.685 255.732 142.509 254.838 141.985Z" fill="#FFB8B8"/>
<path d="M240.275 73.5768C245.581 73.5768 249.882 69.2429 249.882 63.8967C249.882 58.5505 245.581 54.2166 240.275 54.2166C234.969 54.2166 230.668 58.5505 230.668 63.8967C230.668 69.2429 234.969 73.5768 240.275 73.5768Z" fill="#FFB8B8"/>
<path d="M254.776 131.094H225.812L225.847 130.867C225.899 130.527 231.009 96.7987 227.241 85.7644C226.862 84.68 226.896 83.493 227.334 82.4319C227.772 81.3708 228.585 80.5105 229.615 80.0166C235.001 77.4606 245.342 74.3132 254.069 81.9515C255.354 83.094 256.356 84.5219 256.999 86.1223C257.641 87.7226 257.905 89.4516 257.769 91.1724L254.776 131.094Z" fill="#5A8FEC"/>
<path d="M231.376 101.783L218.336 99.1177L224.448 84.5233C224.814 83.1097 225.721 81.9001 226.971 81.1596C228.221 80.4192 229.711 80.2084 231.115 80.5736C232.518 80.9387 233.721 81.85 234.459 83.1074C235.197 84.3649 235.41 85.8659 235.051 87.2812L231.376 101.783Z" fill="#5A8FEC"/>
<path d="M248.076 106.732L247.292 88.6257C246.698 85.222 248.632 82.0043 251.606 81.4783C254.58 80.9543 257.485 83.315 258.082 86.7438L261.029 103.663L248.076 106.732Z" fill="#5A8FEC"/>
<path d="M253.812 128.926C258.473 146.81 258.981 169.548 257.724 194.351L251.466 193.563L240.122 146.267L233.864 194.351L226.823 193.957C224.72 167.933 222.672 145.591 226.041 130.897L253.812 128.926Z" fill="#2F2E41"/>
<path d="M246.605 71.3778C244.813 73.3015 241.484 72.2688 241.251 69.6408C241.233 69.4368 241.234 69.2315 241.255 69.0277C241.375 67.8636 242.043 66.8068 241.883 65.5777C241.847 65.2718 241.734 64.9803 241.554 64.7307C240.126 62.8037 236.774 65.5926 235.426 63.8482C234.599 62.7785 235.571 61.0944 234.937 59.8988C234.099 58.3209 231.62 59.0993 230.065 58.2352C228.335 57.2737 228.439 54.5993 229.578 52.9725C230.966 50.9887 233.401 49.9301 235.806 49.7775C238.211 49.6249 240.599 50.2799 242.844 51.1615C245.394 52.1631 247.924 53.5473 249.493 55.8072C251.402 58.5555 251.586 62.2504 250.631 65.464C250.051 67.4189 248.069 69.807 246.605 71.3778Z" fill="#2F2E41"/>
<path d="M329.408 204.805H40.6253C40.502 204.805 40.3839 204.755 40.2968 204.667C40.2098 204.579 40.1609 204.46 40.1609 204.336C40.1609 204.211 40.2098 204.092 40.2968 204.004C40.3839 203.916 40.502 203.867 40.6253 203.866H329.408C329.532 203.867 329.65 203.916 329.737 204.004C329.824 204.092 329.873 204.211 329.873 204.336C329.873 204.46 329.824 204.579 329.737 204.667C329.65 204.755 329.532 204.805 329.408 204.805Z" fill="#3F3D56"/>
<path d="M184.299 161.789H133.449C132.78 161.792 132.136 161.528 131.659 161.054C131.183 160.58 130.912 159.935 130.907 159.26V44.8969C130.912 44.2221 131.183 43.577 131.659 43.103C132.136 42.629 132.78 42.3648 133.449 42.3684H184.299C184.969 42.3648 185.612 42.629 186.089 43.103C186.566 43.577 186.836 44.2221 186.841 44.8969V159.26C186.836 159.935 186.566 160.58 186.089 161.054C185.612 161.528 184.969 161.792 184.299 161.789Z" fill="white"/>
<path d="M186.841 79.3728H130.907V80.1611H186.841V79.3728Z" fill="#CCCCCC"/>
<path d="M187.037 124.347H131.103V125.135H187.037V124.347Z" fill="#CCCCCC"/>
<path d="M149.292 42.3685H148.509V162.183H149.292V42.3685Z" fill="#CCCCCC"/>
<path d="M168.849 42.3685H168.066V162.183H168.849V42.3685Z" fill="#CCCCCC"/>
</g>
<defs>
<clipPath id="clip0_8459_353">
<rect width="340.3" height="205" fill="white" transform="translate(0.850098)"/>
</clipPath>
</defs>
</svg>
